# xmcd
#
# Track frame offsets:
#	187
#	13037
#	23055
#	38160
#	49225
#	59365
#	69402
#	81745
#	92367
#	102045
#	111147
#	122990
#
# Disc length: 1771 seconds
#
# Revision: 2
# Processed by: cddbd v1.5.2PL0 Copyright (c) Steve Scherf et al.
# Submitted via: audiograbber 1.83.01
#
DISCID=9a06e90c
DTITLE=Patsy Cline - Showcase (with The Jordanaires)
DYEAR=1988
DGENRE=Country
TTITLE0=I Fall To Pieces
TTITLE1=Foolin' 'Round
TTITLE2=The Wayward Wind
TTITLE3=South Of The Border
TTITLE4=I Love You So Much It Hurts
TTITLE5=Seven Lonely Days
TTITLE6=Crazy
TTITLE7=San Antonio Rose
TTITLE8=True Love
TTITLE9=Walkin' After Midnight
TTITLE10=A Poor Man's Roses
TTITLE11=Haver You Ever Been Lonely
EXTD=
EXTT0=
EXTT1=
EXTT2=
EXTT3=
EXTT4=
EXTT5=
EXTT6=
EXTT7=
EXTT8=
EXTT9=
EXTT10=
EXTT11=
PLAYORDER=
